<svg xmlns="http://www.w3.org/2000/svg" xmlns:xlink="http://www.w3.org/1999/xlink" width="24" height="24" viewBox="0 0 24 24">
  <defs>
    <clipPath id="clip-icon-edit">
      <rect width="24" height="24"/>
    </clipPath>
  </defs>
  <g id="icon-edit" clip-path="url(#clip-icon-edit)">
    <g id="Group_174" data-name="Group 174" transform="translate(-1354 -290)">
      <rect id="Rectangle_49" data-name="Rectangle 49" width="24" height="24" transform="translate(1354 290)" fill="rgba(255,255,255,0)"/>
      <g id="edit" transform="translate(1352.4 287.1)">
        <g id="Group_173" data-name="Group 173" transform="translate(5.6 6.9)">
          <path id="Path_30" data-name="Path 30" d="M5.617,18.925l-.017,3.3a.716.716,0,0,0,.2.507.677.677,0,0,0,.49.2l3.281-.017a.677.677,0,0,0,.49-.2L21.4,11.382a.715.715,0,0,0,0-1L18.15,7.1a.715.715,0,0,0-1,0L14.885,9.386,5.82,18.435a.753.753,0,0,0-.2.49ZM17.659,8.591l2.283,2.283L18.657,12.16,16.374,9.877l1.285-1.285ZM7.021,19.23l8.355-8.355,2.283,2.283L9.3,21.5,7,21.513Z" transform="translate(-5.6 -6.9)" fill="#e8e8e8"/>
        </g>
      </g>
    </g>
  </g>
</svg>
